<?xml version="1.0" encoding="utf-8"?>
<!-- Generator: Adobe Illustrator 16.0.0, SVG Export Plug-In . SVG Version: 6.00 Build 0)  -->
<!DOCTYPE svg PUBLIC "-//W3C//DTD SVG 1.1//EN" "http://www.w3.org/Graphics/SVG/1.1/DTD/svg11.dtd">
<svg version="1.1" id="Layer_1" xmlns="http://www.w3.org/2000/svg" xmlns:xlink="http://www.w3.org/1999/xlink" x="0px" y="0px"
	 width="500px" height="350px" viewBox="0 0 500 350" enable-background="new 0 0 500 350" xml:space="preserve">
<rect fill="#C0C2C4" width="500" height="350"/>
<g opacity="0.5">
	<path fill="#FFFFFF" d="M299.742,142.397l-15.896-43.792c-1.175-3.233-4.619-4.945-7.687-3.825l-105.67,38.562
		c-3.071,1.12-4.609,4.65-3.437,7.884l16.762,46.176v-24.753c0-11.166,8.928-20.251,19.9-20.251h27.921l33.301-23.375l19.271,23.375
		H299.742z M316.167,156.417H203.714c-3.268,0-5.918,2.792-5.918,6.232v73.214c0,3.439,2.65,6.229,5.918,6.229h112.453
		c3.27,0,5.92-2.79,5.92-6.229v-73.214C322.087,159.209,319.437,156.417,316.167,156.417z M307.585,226.517H214.37v-13.354
		l14.341-33.377l21.512,26.704l20.182-20.688l25.947-9.361l11.233,25.038V226.517z"/>
</g>
</svg>
